<?xml version="1.0" standalone="no"?>
<!DOCTYPE svg PUBLIC "-//W3C//DTD SVG 20010904//EN"
 "http://www.w3.org/TR/2001/REC-SVG-20010904/DTD/svg10.dtd">
<svg version="1.0" xmlns="http://www.w3.org/2000/svg"
 width="260.000000pt" height="260.000000pt" viewBox="0 0 260.000000 260.000000"
 preserveAspectRatio="xMidYMid meet">
<metadata>
Created by potrace 1.11, written by Peter Selinger 2001-2013
</metadata>
<g transform="translate(0.000000,260.000000) scale(0.100000,-0.100000)"
fill="#000000" stroke="none">
<path d="M1857 2471 l-88 -26 6 -35 c9 -48 14 -53 41 -46 28 7 29 5 9 -35
l-16 -29 -40 21 c-23 11 -42 19 -44 17 -12 -14 -35 -70 -31 -77 3 -5 19 -14
36 -21 16 -7 30 -19 30 -27 0 -11 -5 -13 -17 -8 -10 4 -47 9 -83 12 -167 13
-306 -109 -319 -282 -6 -64 -8 -70 -31 -75 -22 -5 -25 -12 -28 -54 -3 -42 -1
-47 15 -42 63 18 69 18 83 -10 24 -45 107 -112 162 -130 36 -12 71 -15 122
-12 82 6 139 30 194 86 l37 38 80 -44 c44 -24 81 -46 83 -47 2 -2 -22 -11 -53
-20 l-57 -16 7 -37 c4 -20 10 -40 13 -44 6 -6 257 64 268 75 4 4 -72 257 -80
264 -3 3 -23 -1 -44 -8 l-40 -14 18 -57 c10 -32 16 -58 13 -58 -3 0 -40 19
-82 41 l-76 41 0 92 c0 101 -19 154 -80 220 -41 45 -34 61 16 36 l39 -20 20
32 c26 43 26 45 -12 64 -18 9 -34 18 -36 19 -2 2 4 18 14 37 17 33 17 33 27
10 9 -20 15 -23 46 -17 20 4 39 10 43 13 11 11 -51 202 -65 201 -7 -1 -52 -13
-100 -28z m-121 -362 c70 -34 124 -118 124 -196 0 -45 -38 -129 -71 -160 -55
-50 -163 -68 -233 -39 -92 38 -149 151 -126 248 32 133 182 205 306 147z"/>
<path d="M613 1654 c-8 -4 -8 -15 -1 -42 16 -60 28 -61 28 -4 0 51 -3 55 -27
46z"/>
<path d="M619 694 c-13 -21 -31 -47 -39 -60 -8 -13 -22 -25 -32 -27 -22 -6
-24 -43 -3 -50 16 -7 45 -69 45 -98 0 -20 -28 -39 -57 -39 -30 0 -81 -61 -122
-144 l-38 -76 76 -1 c98 -1 115 -7 143 -48 13 -19 28 -36 34 -38 8 -3 13 83
16 304 3 169 4 309 3 311 -1 2 -13 -14 -26 -34z m-81 -377 c4 -20 -25 -34 -40
-19 -15 15 -1 44 19 40 10 -2 19 -11 21 -21z"/>
<path d="M1730 711 c0 -11 -18 -38 -40 -61 -48 -50 -57 -90 -36 -163 9 -30 16
-60 16 -66 0 -22 -20 -10 -36 22 -9 17 -28 47 -42 65 l-25 33 -34 -33 -33 -32
30 -28 c63 -57 80 -165 37 -229 -29 -43 -85 -65 -135 -53 -59 14 -43 29 34 32
70 3 72 4 85 35 17 39 17 124 1 155 -12 21 -18 22 -142 22 l-130 0 0 -104 0
-103 35 -6 c19 -3 50 -18 70 -33 63 -48 170 -45 229 6 30 27 41 30 100 30 59
0 68 -2 75 -22 l8 -21 16 23 c15 22 20 23 88 16 61 -5 70 -4 65 9 -14 37 -55
184 -61 218 l-6 38 -19 -23 c-17 -20 -20 -21 -33 -8 -19 19 -81 179 -97 248
-12 54 -20 66 -20 33z m60 -292 c0 -5 -14 -9 -30 -9 -24 0 -33 6 -40 26 -14
35 -12 88 2 102 10 10 18 -1 40 -49 15 -34 28 -66 28 -70z"/>
<path d="M1311 672 c-18 -16 -32 -35 -30 -44 3 -11 14 -2 37 28 18 24 31 44
30 44 -2 0 -18 -13 -37 -28z"/>
<path d="M1510 634 c-9 -10 -10 -18 -2 -26 12 -12 32 -2 32 17 0 21 -16 26
-30 9z"/>
</g>
</svg>
