<svg version="1.1" id="svg2040" xmlns="http://www.w3.org/2000/svg" x="0" y="0" width='45px' height='58px' viewBox="0 0 490.6 631.7" xml:space="preserve"><style>.st0{fill:#fee733}.st1{fill:#f09133}.st2{fill:#198219}.st3{fill:#d1382e}.st4{fill:#692e88}.st5{fill:#0065fb}.st6{fill:#3c7823}</style><path class="st0" d="M156.8 600.3c.1-3.5.5-24.7 1-47s1.2-54.1 1.6-70.5c.4-16.4 1-39.7 1.2-51.7.4-22.6 1.4-29.6 4.1-29.6 1.6 0 2.3-2.4 1-3.3-.6-.4-2.1-.7-3.3-.7-1.9 0-2.2-.4-2.7-3.8-.7-5.2-2.5-10.1-5.4-14.7v227.8l2.2-.2.3-6.3z"/><path class="st1" d="M147.5 370.4c-6-5.5-12.7-9.9-20-13.5-.4 0-.8 5.1-.8 12.1 0 6.7-.2 13-.3 14.1-.1 1.1-.5 14.7-.7 30.3-1.2 64.9-1.5 76.9-1.8 77.4-.2.3-.3 14.6-.3 31.8v31.3l-2 1.9c-2.5 2.3-2.9 2.3-4.8.2-1.2-1.4-1.5-2.8-1.5-8.2.1-14.3 1.3-62.4 1.6-65 .2-1.5.5-30.7.7-64.7l.4-62-3.4 2.1c-6.2 4.3-13 7.7-18.9 12.5-5.8 5.9-10.5 15.5-11.7 24-.4 2.7-1 3.7-2.8 4.8-2.6 1.6-2.9 3.1-.8 4.6.8.6 2.2 2.3 3 3.8 1.4 2.6 1.5 4.6 1.4 27.1-.1 13.4-.6 45.3-1.1 70.9-.5 25.6-1.1 60.2-1.4 76.7-.4 32.5-.8 35.9-4.3 37.9-2.5 1.4-5.9.7-7.1-1.5-.2-.4-.5-1.6-.7-3v14.2c2.3 1.8 4.1 2 5.4.5.5-.6 2.6-1.7 4.7-2.5 8.4-3.6 14-12.6 17.6-20.6 1.3-1.2 3.8-1.2 25.7-.7 13.3.3 26.2.4 28.6.2l2.1-.2V379c-1.8-3-4-5.8-6.8-8.6z"/><path class="st2" d="M70.6 466.1c-.1.1-.1.2-.2.2v107.2c.3-24 .9-54.9 1.4-79.2.5-27.6.4-29.6-1.2-28.2z"/><path class="st3" d="M70 611.7c-.1-2.7.1-18.1.3-38.2V466.3c-.4.5-.6 1.2-.4 1.8.2.6-.1 1.4-.8 1.6-.7.3-1.3 1.2-1.3 2 0 2.7-3.2 8.4-6.5 11.6-6.5 6.1-7.9 7.9-8.8 10.8-.8 2.8-1.1 3-3.9 2.9-4.7-.2-7.9 3.9-7.9 10.3 0 4.5.1 4.6 2.5 3.4 2.4-1.3 5.6 1.5 8.4 7.4 4.7 9.7 6.6 17.5 5.5 23.3-.7 3.6-2.8 4.7-11.5 5.9-4.3.6-7.9 1.6-10 2.8-6.7 4-16.2 15.6-21.1 26.1-4.5 9.6-8.7 20.2-14.6 29-.2.5 7.3.9 21.2 1 11.8.1 23.7.4 26.4.7 4.6.5 5 .6 5.9 3 3.4 8.8 8.3 14.5 16.1 19.9.3.2.5.4.8.6V616c-.1-1.3-.2-2.8-.3-4.3zm-30-30.3c-3.8 2.2-4.7 2.1-7.3-.1-6.4-5.5-2.2-14.4 6.1-12.8 2.6.5 3.4 1.2 4.6 3.6 1.9 4 .9 6.9-3.4 9.3z"/><path class="st0" d="M217 161.2c-1.6.3-4 .6-5.1.8-1.2.2-2.5.5-2.9.8-.8.5-4.1 8.6-4.1 10.2 4.7.5 12.1-.8 13.5-6.2 0-.9.2-1.9.6-2.2.3-.3.7-1.3.8-2.2.2-1.5-.1-1.6-2.8-1.2zM219.1 614.7c-3.2.6-5.4 2.9-5.4 5.8 0 2.7.8 3.8 2.8 4.3 3.4.8 5 .5 6.8-1.4 2.6-2.8 2.7-4.9.4-7.2-1.6-1.6-2.5-1.9-4.6-1.5z"/><path class="st2" d="M297.4 493.4c-.2 2 .2 3.5 1.1 4.5 1.8 1.9 5.8 1.9 8.1 0 2-1.6 2.3-3.7.9-6.7-2.3-5.2-9.6-3.6-10.1 2.2z"/><path class="st4" d="M419.2 606.1c0-.4-1.8-6-3.9-12.5-4.5-13.4-6.9-21.3-8.7-29.3V606c6.3 0 8.9.3 9.4.8.9 1.1 3.2.6 3.2-.7z"/><path class="st5" d="M403.6 549.4c-1-6.1-2.2-11.4-2.7-11.9-1.8 2.2-3.1 4.8-5.1 6.9-1.1 1.6-2.1 2.1-4.4 2.1-4.5 0-5.9-1.8-11.8-15.9-1.6-3.7-3.7-8.8-4.7-11.2-2.9-6.9-7.3-19.7-9.2-26.7-4-14.9-6.3-24.6-5.9-25.2.1-.1.4-.4.8-.7-.2-.5-.4-1-.5-1.5-.8.2-1.5.3-1.9.1-.1 0-.3-.1-.4-.1-.2 2.8-.6 5.5-1.6 8v.6c0 2.7-3 8-5.7 9.8-4.4 3.1-10.6 10-12.7 14-2.4 4.7-4 11.6-4 17 0 3.7 2.3 13 6 24.5 1.5 4.6 2.7 8.8 2.7 9.4 0 .6-1.4 1-3.8 1-3.8 0-3.9-.1-5.2-3.4-.8-1.9-1.7-3.9-2.1-4.6-.4-.7-1.3-2.3-1.9-3.8-1.2-2.6-4-6.9-7.1-10.9v89.3c2.8-1.8 5.4-3.9 7.9-6.3l3.4-3.8h18.5c11.7 0 19 .3 20.1.9 1.6.9 1.6 1.7.2 6.5-.7 2.2 2.2 1.7 4.5-.8 1.1-1.2 2.5-3.2 3.1-4.4l1.1-2.2 16.9-.2c3.4 0 6.1-.1 8.4-.1v-41.7c-1.1-4.4-1.9-9-2.9-14.7zm-30.7-.8c-.7.8-3 1.1-8.4 1.1-8.7 0-8.7 0-11.9-9.7-2.8-8.4-2.7-15.7.3-21 1.2-2.2 3.1-4.4 4.1-4.9 1.9-.9 2-.8 4.9 6.4 2.8 6.8 4.3 10.2 9.7 22.4 1.8 3.5 2 4.8 1.3 5.7z"/><path class="st6" d="M316.7 520.3c-4.9-4.9-4.4-5.1-9.1 2.9-2.8 4.2-6.6 7-10.3 10.3l1.8 1.6c1 .9 3.1 2.5 4.6 3.5 3.3 2.2 3.5 2.5 7.1 7.1 8.7 11.1 12.4 28.3 9.3 42.9-.6 2.7-2.4 7.3-3.2 9.1-2.8 6.2-11.8 13.7-20 16.5-9.2 3.1-24.8.5-30.5-5.1-2.6-2.6-.3-2.8 28.1-3 7.5-.1 9.8-.3 10.5-1.3.5-.7 5.1-6.4 5.3-7.4.2-1 1.2-4.5 2.1-7.8 2.9-10.8 1.8-26.1-2.4-34.4-2.6-5.1-3.4-5.7-7.8-5.1-2.1.3-20.1.7-39.9.9-10.6.1-18.3.2-23.8.2v55.2c17.8-.1 18.2.2 22.7 4.2 7.4 6.6 15.7 11.6 25.6 13.5 12.6 2.3 25.2-.7 35.7-7.7V527c-2-2.5-4.1-4.9-5.8-6.7zM256.5 476.2c0-.5.1-1.1.1-1.6-2.8 2.2-5.6 4.3-8.4 6.3-.2.1-.4.3-.6.4-2.2 2.2-5.3 5-7.7 6.9l-1.5 1.2v10.3c5.2-8.5 11.2-17.7 18.1-23.5z"/><path class="st0" d="M225.5 550.3c-.9-1.4-.8-10.3.1-16.6 1.9-9.6 3.7-19.5 9.1-27.7 1.2-2 2.4-4.2 3.8-6.4v-10.3c-1.3 1.1-2.3 1.9-2.5 2.1-1.2 1.2-14.7 12.1-18.7 15.1-2.6 2-5.7 4.4-6.8 5.4l-2 1.8V535c0 11.7.5 26.1 1 32.1.6 5.9 1.4 15.6 1.8 21.5.5 5.9 1.1 12.3 1.4 14.3l.6 3.5 20.7-.2h4.5V551c-9.7.1-12.7-.2-13-.7zM222.2 172.5c-.9.3-3.4.8-5.7 1.2s-5.7 1-7.7 1.5-5 1.1-6.8 1.5c-5.5 1.2-6 2-3.9 6.1.7 1.3 1 2.5.8 2.7-.7.7-2.7-2.4-3.5-5.4-1-3.6.1-5.7 3.1-5.7 5.1-.9 3.7-5.3 6-8.5 1.5-.6 1.5-2.6 0-3.2-1.9-.7-9.1 1.3-9.9 2.8-.4.7-2.6 6.9-4.8 13.7-3.5 10.5-4.1 12.9-3.7 16.3.3 2.8.2 3.7-.4 3.1-1.9-1.9-1.2-13.2 1-15.7.4-.4.7-1.6.7-2.6s.5-2.4 1.2-3.1c1.2-2.2.5-5.3 2.8-6.5 0-.4.2-1.3.5-2 .4-1-.1-1.3-2.2-1.3-1.5 0-3.1.3-3.5.7-.4.4-1.6.8-2.7 1-1.7.2-2.3 1.3-4.6 8.2-1.5 4.4-2.8 8.5-2.9 9.2-.3 1.3-.7 2.4-2.7 7.2-1.5 3.6-2.2 1.8-.9-2.2.6-1.6 1-4.1 1-5.4 0-1.3.3-2.6.6-2.8.4-.2.8-1.4.9-2.5.1-1.2.6-1.9 1.1-1.7.9.3 2.5-4.2 1.7-5-.2-.2-1.6 0-3.1.4s-4.3.9-6.3 1c-5 .4-8.2 4.8-5.5 7.6.7.7.7 1.7.1 3.9-.5 1.7-1.3 4.6-1.9 6.6s-1.3 3.8-1.6 4c-.5.3 2.2 11.4 3 12.6.1.1 1.4.4 2.8.6 1.5.2 2.8.6 2.9 1 .1.4 1.5.5 3.1.3 2-.2 2.7-.1 2.3.6-.7 1.1-9.2 1.2-11.6.2.1.2.1.4.1.6.8 5.8 5.9 9.7 8.6 14.7.4-.2.7-.3.9-.3.7 0 2.4 5.6 1.8 6.4-.2.3.3.4 1.2.2 1.8-.5 2.1.5.6 2-1 1-2.4 1-3.1.5-.2 1.9-.7 3.7-1.2 5.6.3 5.8.1 18.3-.4 41-.4 18.6-.6 33.9-.4 34.1 11.9-2.8 22.6-8.8 31.5-17.1.9-1 2.1-2.1 3.1-3-.1-1.4-.2-2.8-.1-4.3.2-2.4.4-5.3.9-8.2 0-11.1.6-34.8 1.3-47.4.1-1 .6-1.8 1.3-1.8.7 0 2.6-1.3 4.3-2.8 5-4.9 10.1-9.6 14.1-15.5 3.7-4.1 3.6-2.7.7-23.5-3.1-22.3-3.1-22.2-4.9-21.6zm-34.4 33.9c.6-.6 1.9 1.6 2 3.3 0 .8-.2 1.4-.4 1.4-.8 0-2.1-4.2-1.6-4.7zm14.4 4.3c-5.5 5-7.9 9-8.9 15.4-.5 3.2-.4 3.6 2.4 6.2 1.6 1.5 3.6 2.8 4.5 2.8.9 0 1.5.5 1.5 1.3s-.6 1.2-1.8 1.1c-3-.3-4.6.8-4.6 3.4 0 1.3-.4 3.1-.8 3.9-1.4 2.6-2.2 1.7-1.8-1.7.2-1.8 0-6-.6-9.4s-1-7.9-1-9.9c0-2.1-.2-3.8-.5-3.8s-1.4-.2-2.5-.3c-10.1-1-11.8-1.4-12.7-3.4-.5-1.1-.9-2.9-.9-4.1 0-1.2-.7-4.5-1.6-7.3-1.7-5.4-2.1-8.8-.9-7.5.4.4 1.1 2.4 1.7 4.3 2.7 9.4 4.2 13.5 5.3 14.4 1.4 1.2 10.1.6 10.5-.7.2-.6.8-.7 1.8-.1 1.5.8 4 .3 4-.8 0-.3 1.2-1.8 2.7-3.3 1.7-2.3 3.1-4.8 5.6-5.8.6-.5 1.8-1.5 2.7-2.1 1.4-1 1.7-2 1.7-6.6 0-5.1-.1-5.4-1.8-5.4-1.9 0-5.3-2-4.5-2.6.2-.2 1.8-.2 3.4 0 3.5.4 4.1 1.6 4.7 7.9.2 2.2.6 4.5.9 4.9.7.9 0 1.6-8.5 9.2zM204.4 585.9c-.6-7-1.6-17.2-2.1-22.7s-.9-16.9-.8-25.5c.2-22.3 1.7-94.5 2.6-126.4.4-14.9.8-36.6.8-48.2 0-11.6.3-29.1.7-39 .3-9.9.3-18.6 0-19.5-.8-1.8-3.9 3.1-6.1 4.1-1.7 1.6-4.3 3.8-5.8 5-1.9 1.5-3.7 3.1-6 4.1-1.3.7-2.6 1.4-2.8 1.6-.8.8-4.5 2.4-8.6 3.7-6.6 2.1-6.5 2-6.5 15.3 0 6.4-.3 25.7-.8 42.8s-1.2 57.2-1.7 89.2-1 62.5-1.1 67.7c-.8 28.1-1.4 67.2-1 68.2.3.9 4.2 1.1 20.9 1.1h20.5l-.5-4.4c-.3-2.3-1-10.1-1.7-17.1z"/><path class="st0" d="M161.7 212.4c-1.3-5.8-1.2-11.7-1.1-17.6l-6.2 1.9v24l9.2-2.8c-.8-1.7-1.5-3.5-1.9-5.5z"/><path class="st1" d="M114.7 208.6l-9.7-32.3-22 6.6 9.7 32.4-22.3 6.7v24l28.9-8.7 9 29.9 22-6.6-9-30 33.1-9.9v-24z"/><path class="st3" d="M60.9 224.8l6.6 22.1 2.9-.9v-24z"/><path class="st4" d="M417.6 75.1l-11.1-6v26.1l.2.1zM413.4 59.8l22-6.7-16-53.1-12.9 3.9v44.3l2.2-4zM447.4 172.8l9.9 32.8-47-25.3c5.2-15.3 5.6-31.8 1.1-47.6l-.7-2.2c-1.1-3.6-2.5-7-4.1-10.3v84.3l39.8 21.4-32.8 9.9 6.6 22 70.4-21.2-21.2-70.4-22 6.6z"/><path class="st5" d="M383.4 91.2l3.5-6.5 19.6 10.5V69.1l-8.7-4.7 8.7-16.2V3.9L366.2 16l6.6 22 15.5-4.7-10.9 20.2-21-11.3-10.9 20.3 21 11.3-3.2 6c-13.1-5.2-27.1-6.8-41-4.8v23.3c3.8-.8 7.6-1.1 11.3-1.1 24.4 0 47.1 15.6 54.8 40.1l.5 1.7c4.1 14.4 2.4 29.7-4.7 42.9-7.1 13.3-18.9 23.1-33.3 27.6-9.4 3-19.3 3.5-28.7 1.6v23.3c11.6 1.7 23.8.8 35.7-2.9 17.1-5.4 31.6-16.1 41.7-30.6l6.7 3.6v-84.3c-5.2-11.5-13-21.3-22.9-29z"/><path class="st6" d="M307.4 205.7c-13.6-7.1-23.7-19-28.3-33.7-4.6-14.6-3.3-30.2 3.8-43.8 7.1-13.6 19-23.7 33.7-28.3 2-.6 4-1.1 6-1.5V75c-4.3.6-8.7 1.6-12.9 3-20.5 6.5-37.2 20.6-47.1 39.7-7.9 15.3-10.7 32.3-8.2 49l-15.8 4.7v24l22.4-6.7c11.7 25.1 35.2 41.9 61.6 45.7v-23.3c-5.3-1.1-10.4-2.8-15.2-5.4z"/><path class="st0" d="M224.2 175.7c0 7.8 1.5 15.5 2.6 23.2l11.7-3.5v-24l-14.3 4.3z"/></svg>
