<svg version="1.1" id="svg2040" xmlns="http://www.w3.org/2000/svg" x="0" y="0" width='45px' height='58px' viewBox="0 0 45 58" xml:space="preserve"><style>.st0{fill:#fee733}.st1{fill:#f09133}.st2{fill:#198219}.st3{fill:#d1382e}</style><path class="st0" d="M14.4 55.1c0-.3 0-2.3.1-4.3 0-2 .1-5 .1-6.5s.1-3.6.1-4.7c0-2.1.1-2.7.4-2.7.1 0 .2-.2.1-.3-.1 0-.2-.1-.3-.1-.2 0-.2 0-.2-.3-.1-.5-.2-.9-.5-1.3v20.9h.2v-.7z"/><path class="st1" d="M13.5 34c-.6-.5-1.2-.9-1.8-1.2 0 0-.1.5-.1 1.1v1.3c0 .1 0 1.3-.1 2.8-.1 6-.1 7.1-.2 7.1v5.8l-.1.1c-.2.2-.3.2-.4 0-.1-.1-.1-.3-.1-.8 0-1.3.1-5.7.1-6 0-.1 0-2.8.1-5.9v-5.7l-.3.2c-.6.4-1.2.7-1.7 1.1-.5.5-1 1.4-1.1 2.2 0 .2-.1.3-.3.4-.2.1-.3.3-.1.4l.3.3c.1.2.1.4.1 2.5 0 1.2-.1 4.2-.1 6.5s-.1 5.5-.1 7c0 3-.1 3.3-.4 3.5-.2.1-.5.1-.7-.1 0 0 0-.1-.1-.3v1.3c.2.2.4.2.5 0 0-.1.2-.2.4-.2.8-.3 1.3-1.2 1.6-1.9.1-.1.3-.1 2.4-.1H14.1V34.8c-.1-.3-.3-.5-.6-.8z"/><path class="st2" d="M6.5 42.8v9.9c0-2.2.1-5 .1-7.3 0-2.6 0-2.7-.1-2.6z"/><path class="st3" d="M6.4 56.1V42.8s-.1.1 0 .2c0 .1 0 .1-.1.1s-.1.1-.1.2c0 .2-.3.8-.6 1.1-.6.6-.7.7-.8 1-.1.3-.1.3-.4.3-.4 0-.7.4-.7.9 0 .4 0 .4.2.3.2-.1.5.1.8.7.4.9.6 1.6.5 2.1 0 .3-.2.4-1 .5-.4.1-.7.1-.9.3-.6.4-1.5 1.4-1.9 2.4-.4.9-.8 1.9-1.3 2.7 0 0 .7.1 1.9.1 1.1 0 2.2 0 2.4.1.4 0 .5.1.5.3.3.8.8 1.3 1.5 1.8l.1.1v-1.3c-.1-.3-.1-.4-.1-.6zm-2.7-2.7c-.3.2-.4.2-.7 0-.6-.5-.2-1.3.6-1.2.2 0 .3.1.4.3.2.4.1.6-.3.9z"/><path class="st0" d="M19.9 14.8c-.1 0-.4.1-.5.1-.1 0-.2 0-.3.1-.1 0-.4.8-.4.9.4 0 1.1-.1 1.2-.6 0-.1 0-.2.1-.2 0 0 .1-.1.1-.2.1-.1.1-.1-.2-.1zm.2 41.6c-.3.1-.5.3-.5.5s.1.3.3.4c.3.1.5 0 .6-.1.2-.3.2-.4 0-.7-.1-.1-.2-.1-.4-.1z"/><path class="st2" d="M27.3 45.3c0 .2 0 .3.1.4.2.2.5.2.7 0 .2-.1.2-.3.1-.6-.2-.5-.9-.3-.9.2z"/><path d="M38.5 55.6s-.2-.6-.4-1.1c-.4-1.2-.6-2-.8-2.7v3.8c.6 0 .8 0 .9.1 0 .1.3 0 .3-.1z" fill="#692e88"/><path d="M21 19.1l9.7-3 1.2 3.9-1.8.6 4.6 2.9 2.4-5.1-1.8.6-1.3-4 3.9-1.2.6 1.8 2.9-4.6-5.1-2.4.6 1.8-3.9 1.2-1.2-3.9 1.8-.6-4.9-2.8-2.2 5 1.8-.6 1.2 3.9-9.1 3.4"/><path d="M37 50.4c-.1-.6-.2-1-.2-1.1-.2.2-.3.4-.5.6-.1.1-.2.2-.4.2-.4 0-.5-.2-1.1-1.5-.1-.3-.3-.8-.4-1-.3-.6-.7-1.8-.8-2.4-.4-1.3-.6-2.2-.6-2.3l.1-.1v-.1h-.2c0 .3-.1.5-.1.7v.1c0 .2-.3.7-.5.9-.4.3-1 .9-1.2 1.3-.2.4-.4 1.1-.4 1.6 0 .3.2 1.2.6 2.2.1.4.2.8.2.9 0 .1-.1.1-.3.1-.3 0-.4 0-.5-.3l-.2-.4c0-.1-.1-.2-.2-.3-.1-.2-.4-.6-.7-1v8.2c.3-.2.5-.4.7-.6l.3-.3h1.7c1.1 0 1.7 0 1.8.1.1.1.1.2 0 .6-.1.2.2.2.4-.1.1-.1.2-.3.3-.4l.1-.2H37.3V52c-.1-.6-.2-1.1-.3-1.6zm-2.8-.1c-.1.1-.3.1-.8.1-.8 0-.8 0-1.1-.9-.3-.8-.2-1.4 0-1.9.1-.2.3-.4.4-.4.2-.1.2-.1.4.6.3.6.4.9.9 2.1.2.2.3.4.2.4z" fill="#0065fb"/><path d="M29 47.8c-.4-.4-.4-.5-.8.3-.3.4-.6.6-.9.9l.2.1c.1.1.3.2.4.3.3.2.3.2.7.7.8 1 1.1 2.6.9 3.9-.1.2-.2.7-.3.8-.3.6-1.1 1.3-1.8 1.5-.8.3-2.3 0-2.8-.5-.2-.2 0-.3 2.6-.3.7 0 .9 0 1-.1 0-.1.5-.6.5-.7 0-.1.1-.4.2-.7.3-1 .2-2.4-.2-3.2-.2-.5-.3-.5-.7-.5-.2 0-1.8.1-3.7.1h-2.2v5.1c1.6 0 1.7 0 2.1.4.7.6 1.4 1.1 2.3 1.2 1.2.2 2.3-.1 3.3-.7v-8.2c-.4-.1-.6-.3-.8-.4zm-5.5-4.1v-.1c-.3.2-.5.4-.8.6h-.1c-.2.2-.5.5-.7.6l-.1.1v.9c.5-.7 1.1-1.6 1.7-2.1z" fill="#3c7823"/><path class="st0" d="M20.7 50.5c-.1-.1-.1-.9 0-1.5.2-.9.3-1.8.8-2.5l.3-.6V45l-.2.2c-.1.1-1.3 1.1-1.7 1.4-.2.2-.5.4-.6.5l-.2.2v2c0 1.1 0 2.4.1 2.9s.1 1.4.2 2c0 .5.1 1.1.1 1.3l.1.3h2.3v-5.1c-.9-.1-1.2-.1-1.2-.2zm-.3-34.6c-.1 0-.3.1-.5.1s-.5.1-.7.1-.5.1-.6.1c-.5.1-.6.2-.4.6.1.1.1.2.1.2-.1.1-.2-.2-.3-.5-.1-.3 0-.5.3-.5.5-.1.3-.5.6-.8.1-.1.1-.2 0-.3-.2-.1-.8.1-.9.3 0 .1-.2.6-.4 1.3-.3 1-.4 1.2-.3 1.5v.3c-.2-.2-.1-1.2.1-1.4 0 0 .1-.1.1-.2s0-.2.1-.3c.1-.2 0-.5.3-.6v-.2c0-.1 0-.1-.2-.1-.1 0-.3 0-.3.1 0 0-.1.1-.2.1-.2 0-.2.1-.4.8-.1.4-.3.8-.3.8 0 .1-.1.2-.2.7-.1.3-.2.2-.1-.2.1-.1.1-.4.1-.5s0-.2.1-.3c0 0 .1-.1.1-.2s.1-.2.1-.2c.1 0 .2-.4.2-.5h-.3c-.1 0-.4.1-.6.1-.5 0-.8.4-.5.7.1.1.1.2 0 .4 0 .2-.1.4-.2.6s-.1.3-.1.4c0 0 .2 1 .3 1.2 0 0 .1 0 .3.1.1 0 .3.1.3.1h.3c.2 0 .2 0 .2.1-.1.1-.8.1-1.1 0v.1c.1.5.5.9.8 1.3h.1c.1 0 .2.5.2.6h.1c.2 0 .2 0 .1.2-.1.1-.2.1-.3 0 0 .2-.1.3-.1.5v3.8c0 1.7-.1 3.1 0 3.1 1.1-.3 2.1-.8 2.9-1.6l.3-.3v-.4c0-.2 0-.5.1-.8 0-1 .1-3.2.1-4.3 0-.1.1-.2.1-.2.1 0 .2-.1.4-.3.5-.4.9-.9 1.3-1.4.3-.4.3-.2.1-2.2-1.1-2.1-1.1-2.1-1.2-2zM17.2 19c.1-.1.2.1.2.3v.1c-.1 0-.2-.4-.2-.4zm1.3.4c-.5.5-.7.8-.8 1.4 0 .3 0 .3.2.6.1.1.3.3.4.3.1 0 .1 0 .1.1s-.1.1-.2.1c-.3 0-.4.1-.4.3 0 .1 0 .3-.1.4-.1.2-.2.2-.2-.2 0-.2 0-.6-.1-.9-.1-.3-.1-.7-.1-.9v-.3h-.2c-.9-.1-1.1-.1-1.2-.3 0-.1-.1-.3-.1-.4 0-.1-.1-.4-.1-.7-.2-.5-.2-.8-.1-.7l.2.4c.2.9.4 1.2.5 1.3.1.1.9.1 1-.1 0-.1.1-.1.2 0s.4 0 .4-.1c0 0 .1-.2.2-.3.2-.2.3-.4.5-.5.1 0 .2-.1.2-.2.1-.1.2-.2.2-.6 0-.5 0-.5-.2-.5s-.5-.2-.4-.2h.3c.3 0 .4.1.4.7 0 .2.1.4.1.4.2.1.1.2-.7.9zm.2 34.4c-.1-.6-.1-1.6-.2-2.1 0-.5-.1-1.6-.1-2.3 0-2 .2-8.7.2-11.6 0-1.4.1-3.4.1-4.4s0-2.7.1-3.6V28c-.1-.2-.4.3-.6.4-.2.1-.4.3-.5.5-.2.1-.3.3-.6.4-.1.1-.2.1-.3.1-.1.1-.4.2-.8.3-.6.2-.6.2-.6 1.4 0 .6 0 2.4-.1 3.9s-.1 5.2-.2 8.2c0 2.9-.1 5.7-.1 6.2-.1 2.6-.1 6.2-.1 6.3 0 .1.4.1 1.9.1H19v-.4c-.1-.3-.2-1-.3-1.6zM14.8 19.5c-.1-.5-.1-1.1-.1-1.6l-.6.2v2.2l.9-.3c-.1-.1-.1-.3-.2-.5z"/><path class="st1" d="M10.5 19.2l-.9-3-2 .6.9 3-2 .6v2.2l2.7-.8.8 2.7 2-.6-.8-2.8 3-.9V18l-3.7 1.2z"/><path class="st3" d="M5.6 20.6l.6 2 .3-.1v-2.2l-.9.3z"/></svg>
