<?xml version="1.0" encoding="utf-8"?>
<!-- Generator: Adobe Illustrator 24.2.3, SVG Export Plug-In . SVG Version: 6.00 Build 0)  -->
<svg version="1.1"
	 id="svg2040" xmlns:cc="http://creativecommons.org/ns#" xmlns:dc="http://purl.org/dc/elements/1.1/" xmlns:inkscape="http://www.inkscape.org/namespaces/inkscape" xmlns:rdf="http://www.w3.org/1999/02/22-rdf-syntax-ns#" xmlns:sodipodi="http://sodipodi.sourceforge.net/DTD/sodipodi-0.dtd" xmlns:svg="http://www.w3.org/2000/svg"
	 xmlns="http://www.w3.org/2000/svg" xmlns:xlink="http://www.w3.org/1999/xlink" x="0px" y="0px" viewBox="0 0 490.6 631.7"
	 style="enable-background:new 0 0 490.6 631.7;" xml:space="preserve">
<style type="text/css">
	.st0{fill:#FEE733;}
	.st1{fill:#F09133;}
	.st2{fill:#198219;}
	.st3{fill:#D1382E;}
	.st4{fill:#692E88;}
	.st5{fill:#0065FB;}
	.st6{fill:#3C7823;}
</style>
<sodipodi:namedview  bordercolor="#666666" borderopacity="1.0" gridtolerance="10.0" guidetolerance="10.0" id="base" inkscape:current-layer="svg2040" inkscape:cx="600" inkscape:cy="400" inkscape:pageopacity="0.0" inkscape:pageshadow="2" inkscape:window-height="750" inkscape:window-width="1280" inkscape:window-x="-8" inkscape:window-y="-8" inkscape:zoom="0.45333333" objecttolerance="10.0" pagecolor="#ffffff" showgrid="false">
	</sodipodi:namedview>
<defs>
	
		<inkscape:perspective  id="perspective11" inkscape:persp3d-origin="600 : 266.66667 : 1" inkscape:vp_x="0 : 400 : 1" inkscape:vp_y="0 : 1000 : 0" inkscape:vp_z="1200 : 400 : 1" sodipodi:type="inkscape:persp3d">
		</inkscape:perspective>
</defs>
<path class="st0" d="M156.8,600.3c0.1-3.5,0.5-24.7,1-47c0.5-22.3,1.2-54.1,1.6-70.5c0.4-16.4,1-39.7,1.2-51.7
	c0.4-22.6,1.4-29.6,4.1-29.6c1.6,0,2.3-2.4,1-3.3c-0.6-0.4-2.1-0.7-3.3-0.7c-1.9,0-2.2-0.4-2.7-3.8c-0.7-5.2-2.5-10.1-5.4-14.7
	v227.8l2.2-0.2L156.8,600.3z"/>
<path class="st1" d="M147.5,370.4c-6-5.5-12.7-9.9-20-13.5c-0.4,0-0.8,5.1-0.8,12.1c0,6.7-0.2,13-0.3,14.1
	c-0.1,1.1-0.5,14.7-0.7,30.3c-1.2,64.9-1.5,76.9-1.8,77.4c-0.2,0.3-0.3,14.6-0.3,31.8l0,31.3l-2,1.9c-2.5,2.3-2.9,2.3-4.8,0.2
	c-1.2-1.4-1.5-2.8-1.5-8.2c0.1-14.3,1.3-62.4,1.6-65c0.2-1.5,0.5-30.7,0.7-64.7l0.4-62l-3.4,2.1c-6.2,4.3-13,7.7-18.9,12.5
	c-5.8,5.9-10.5,15.5-11.7,24c-0.4,2.7-1,3.7-2.8,4.8c-2.6,1.6-2.9,3.1-0.8,4.6c0.8,0.6,2.2,2.3,3,3.8c1.4,2.6,1.5,4.6,1.4,27.1
	c-0.1,13.4-0.6,45.3-1.1,70.9c-0.5,25.6-1.1,60.2-1.4,76.7c-0.4,32.5-0.8,35.9-4.3,37.9c-2.5,1.4-5.9,0.7-7.1-1.5
	c-0.2-0.4-0.5-1.6-0.7-3v14.2c2.3,1.8,4.1,2,5.4,0.5c0.5-0.6,2.6-1.7,4.7-2.5c8.4-3.6,14-12.6,17.6-20.6c1.3-1.2,3.8-1.2,25.7-0.7
	c13.3,0.3,26.2,0.4,28.6,0.2l2.1-0.2V379C152.5,376,150.3,373.2,147.5,370.4z"/>
<path class="st2" d="M70.6,466.1c-0.1,0.1-0.1,0.2-0.2,0.2v107.2c0.3-24,0.9-54.9,1.4-79.2C72.3,466.7,72.2,464.7,70.6,466.1z"/>
<path class="st3" d="M70,611.7c-0.1-2.7,0.1-18.1,0.3-38.2V466.3c-0.4,0.5-0.6,1.2-0.4,1.8c0.2,0.6-0.1,1.4-0.8,1.6
	c-0.7,0.3-1.3,1.2-1.3,2c0,2.7-3.2,8.4-6.5,11.6c-6.5,6.1-7.9,7.9-8.8,10.8c-0.8,2.8-1.1,3-3.9,2.9c-4.7-0.2-7.9,3.9-7.9,10.3
	c0,4.5,0.1,4.6,2.5,3.4c2.4-1.3,5.6,1.5,8.4,7.4c4.7,9.7,6.6,17.5,5.5,23.3c-0.7,3.6-2.8,4.7-11.5,5.9c-4.3,0.6-7.9,1.6-10,2.8
	c-6.7,4-16.2,15.6-21.1,26.1c-4.5,9.6-8.7,20.2-14.6,29c-0.2,0.5,7.3,0.9,21.2,1c11.8,0.1,23.7,0.4,26.4,0.7c4.6,0.5,5,0.6,5.9,3
	c3.4,8.8,8.3,14.5,16.1,19.9c0.3,0.2,0.5,0.4,0.8,0.6V616C70.2,614.7,70.1,613.2,70,611.7z M40,581.4c-3.8,2.2-4.7,2.1-7.3-0.1
	c-6.4-5.5-2.2-14.4,6.1-12.8c2.6,0.5,3.4,1.2,4.6,3.6C45.3,576.1,44.3,579,40,581.4z"/>
<path class="st0" d="M217,161.2c-1.6,0.3-4,0.6-5.1,0.8c-1.2,0.2-2.5,0.5-2.9,0.8c-0.8,0.5-4.1,8.6-4.1,10.2
	c4.7,0.5,12.1-0.8,13.5-6.2c0-0.9,0.2-1.9,0.6-2.2c0.3-0.3,0.7-1.3,0.8-2.2C220,160.9,219.7,160.8,217,161.2z"/>
<path class="st0" d="M219.1,614.7c-3.2,0.6-5.4,2.9-5.4,5.8c0,2.7,0.8,3.8,2.8,4.3c3.4,0.8,5,0.5,6.8-1.4c2.6-2.8,2.7-4.9,0.4-7.2
	C222.1,614.6,221.2,614.3,219.1,614.7z"/>
<path class="st2" d="M297.4,493.4c-0.2,2,0.2,3.5,1.1,4.5c1.8,1.9,5.8,1.9,8.1,0c2-1.6,2.3-3.7,0.9-6.7
	C305.2,486,297.9,487.6,297.4,493.4z"/>
<path class="st4" d="M419.2,606.1c0-0.4-1.8-6-3.9-12.5c-4.5-13.4-6.9-21.3-8.7-29.3V606c6.3,0,8.9,0.3,9.4,0.8
	C416.9,607.9,419.2,607.4,419.2,606.1z"/>
<path class="st5" d="M403.6,549.4c-1-6.1-2.2-11.4-2.7-11.9c-1.8,2.2-3.1,4.8-5.1,6.9c-1.1,1.6-2.1,2.1-4.4,2.1
	c-4.5,0-5.9-1.8-11.8-15.9c-1.6-3.7-3.7-8.8-4.7-11.2c-2.9-6.9-7.3-19.7-9.2-26.7c-4-14.9-6.3-24.6-5.9-25.2
	c0.1-0.1,0.4-0.4,0.8-0.7c-0.2-0.5-0.4-1-0.5-1.5c-0.8,0.2-1.5,0.3-1.9,0.1c-0.1,0-0.3-0.1-0.4-0.1c-0.2,2.8-0.6,5.5-1.6,8
	c0,0.2,0,0.4,0,0.6c0,2.7-3,8-5.7,9.8c-4.4,3.1-10.6,10-12.7,14c-2.4,4.7-4,11.6-4,17c0,3.7,2.3,13,6,24.5c1.5,4.6,2.7,8.8,2.7,9.4
	c0,0.6-1.4,1-3.8,1c-3.8,0-3.9-0.1-5.2-3.4c-0.8-1.9-1.7-3.9-2.1-4.6c-0.4-0.7-1.3-2.3-1.9-3.8c-1.2-2.6-4-6.9-7.1-10.9v89.3
	c2.8-1.8,5.4-3.9,7.9-6.3l3.4-3.8h18.5c11.7,0,19,0.3,20.1,0.9c1.6,0.9,1.6,1.7,0.2,6.5c-0.7,2.2,2.2,1.7,4.5-0.8
	c1.1-1.2,2.5-3.2,3.1-4.4l1.1-2.2l16.9-0.2c3.4,0,6.1-0.1,8.4-0.1v-41.7C405.4,559.7,404.6,555.1,403.6,549.4z M372.9,548.6
	c-0.7,0.8-3,1.1-8.4,1.1c-8.7,0-8.7,0-11.9-9.7c-2.8-8.4-2.7-15.7,0.3-21c1.2-2.2,3.1-4.4,4.1-4.9c1.9-0.9,2-0.8,4.9,6.4
	c2.8,6.8,4.3,10.2,9.7,22.4C373.4,546.4,373.6,547.7,372.9,548.6z"/>
<path class="st6" d="M316.7,520.3c-4.9-4.9-4.4-5.1-9.1,2.9c-2.8,4.2-6.6,7-10.3,10.3l1.8,1.6c1,0.9,3.1,2.5,4.6,3.5
	c3.3,2.2,3.5,2.5,7.1,7.1c8.7,11.1,12.4,28.3,9.3,42.9c-0.6,2.7-2.4,7.3-3.2,9.1c-2.8,6.2-11.8,13.7-20,16.5
	c-9.2,3.1-24.8,0.5-30.5-5.1c-2.6-2.6-0.3-2.8,28.1-3c7.5-0.1,9.8-0.3,10.5-1.3c0.5-0.7,5.1-6.4,5.3-7.4c0.2-1,1.2-4.5,2.1-7.8
	c2.9-10.8,1.8-26.1-2.4-34.4c-2.6-5.1-3.4-5.7-7.8-5.1c-2.1,0.3-20.1,0.7-39.9,0.9c-10.6,0.1-18.3,0.2-23.8,0.2v55.2
	c17.8-0.1,18.2,0.2,22.7,4.2c7.4,6.6,15.7,11.6,25.6,13.5c12.6,2.3,25.2-0.7,35.7-7.7V527C320.5,524.5,318.4,522.1,316.7,520.3z"/>
<path class="st6" d="M256.5,476.2c0-0.5,0.1-1.1,0.1-1.6c-2.8,2.2-5.6,4.3-8.4,6.3c-0.2,0.1-0.4,0.3-0.6,0.4c-2.2,2.2-5.3,5-7.7,6.9
	c-0.5,0.4-1,0.8-1.5,1.2v10.3C243.6,491.2,249.6,482,256.5,476.2z"/>
<path class="st0" d="M225.5,550.3c-0.9-1.4-0.8-10.3,0.1-16.6c1.9-9.6,3.7-19.5,9.1-27.7c1.2-2,2.4-4.2,3.8-6.4v-10.3
	c-1.3,1.1-2.3,1.9-2.5,2.1c-1.2,1.2-14.7,12.1-18.7,15.1c-2.6,2-5.7,4.4-6.8,5.4l-2,1.8v21.3c0,11.7,0.5,26.1,1,32.1
	c0.6,5.9,1.4,15.6,1.8,21.5c0.5,5.9,1.1,12.3,1.4,14.3l0.6,3.5l20.7-0.2c1.6,0,3.1,0,4.5,0v-55.2
	C228.8,551.1,225.8,550.8,225.5,550.3z"/>
<path class="st0" d="M222.2,172.5c-0.9,0.3-3.4,0.8-5.7,1.2s-5.7,1-7.7,1.5s-5,1.1-6.8,1.5c-5.5,1.2-6,2-3.9,6.1
	c0.7,1.3,1,2.5,0.8,2.7c-0.7,0.7-2.7-2.4-3.5-5.4c-1-3.6,0.1-5.7,3.1-5.7c5.1-0.9,3.7-5.3,6-8.5c1.5-0.6,1.5-2.6,0-3.2
	c-1.9-0.7-9.1,1.3-9.9,2.8c-0.4,0.7-2.6,6.9-4.8,13.7c-3.5,10.5-4.1,12.9-3.7,16.3c0.3,2.8,0.2,3.7-0.4,3.1
	c-1.9-1.9-1.2-13.2,1-15.7c0.4-0.4,0.7-1.6,0.7-2.6s0.5-2.4,1.2-3.1c1.2-2.2,0.5-5.3,2.8-6.5c0-0.4,0.2-1.3,0.5-2
	c0.4-1-0.1-1.3-2.2-1.3c-1.5,0-3.1,0.3-3.5,0.7c-0.4,0.4-1.6,0.8-2.7,1c-1.7,0.2-2.3,1.3-4.6,8.2c-1.5,4.4-2.8,8.5-2.9,9.2
	c-0.3,1.3-0.7,2.4-2.7,7.2c-1.5,3.6-2.2,1.8-0.9-2.2c0.6-1.6,1-4.1,1-5.4c0-1.3,0.3-2.6,0.6-2.8c0.4-0.2,0.8-1.4,0.9-2.5
	c0.1-1.2,0.6-1.9,1.1-1.7c0.9,0.3,2.5-4.2,1.7-5c-0.2-0.2-1.6,0-3.1,0.4c-1.5,0.4-4.3,0.9-6.3,1c-5,0.4-8.2,4.8-5.5,7.6
	c0.7,0.7,0.7,1.7,0.1,3.9c-0.5,1.7-1.3,4.6-1.9,6.6s-1.3,3.8-1.6,4c-0.5,0.3,2.2,11.4,3,12.6c0.1,0.1,1.4,0.4,2.8,0.6
	c1.5,0.2,2.8,0.6,2.9,1c0.1,0.4,1.5,0.5,3.1,0.3c2-0.2,2.7-0.1,2.3,0.6c-0.7,1.1-9.2,1.2-11.6,0.2c0.1,0.2,0.1,0.4,0.1,0.6
	c0.8,5.8,5.9,9.7,8.6,14.7c0.4-0.2,0.7-0.3,0.9-0.3c0.7,0,2.4,5.6,1.8,6.4c-0.2,0.3,0.3,0.4,1.2,0.2c1.8-0.5,2.1,0.5,0.6,2
	c-1,1-2.4,1-3.1,0.5c-0.2,1.9-0.7,3.7-1.2,5.6c0.3,5.8,0.1,18.3-0.4,41c-0.4,18.6-0.6,33.9-0.4,34.1c11.9-2.8,22.6-8.8,31.5-17.1
	c0.9-1,2.1-2.1,3.1-3c-0.1-1.4-0.2-2.8-0.1-4.3c0.2-2.4,0.4-5.3,0.9-8.2c0-11.1,0.6-34.8,1.3-47.4c0.1-1,0.6-1.8,1.3-1.8
	c0.7,0,2.6-1.3,4.3-2.8c5-4.9,10.1-9.6,14.1-15.5c3.7-4.1,3.6-2.7,0.7-23.5C224,171.8,224,171.9,222.2,172.5z M187.8,206.4
	c0.6-0.6,1.9,1.6,2,3.3c0,0.8-0.2,1.4-0.4,1.4C188.6,211.1,187.3,206.9,187.8,206.4z M202.2,210.7c-5.5,5-7.9,9-8.9,15.4
	c-0.5,3.2-0.4,3.6,2.4,6.2c1.6,1.5,3.6,2.8,4.5,2.8c0.9,0,1.5,0.5,1.5,1.3c0,0.8-0.6,1.2-1.8,1.1c-3-0.3-4.6,0.8-4.6,3.4
	c0,1.3-0.4,3.1-0.8,3.9c-1.4,2.6-2.2,1.7-1.8-1.7c0.2-1.8,0-6-0.6-9.4s-1-7.9-1-9.9c0-2.1-0.2-3.8-0.5-3.8c-0.3,0-1.4-0.2-2.5-0.3
	c-10.1-1-11.8-1.4-12.7-3.4c-0.5-1.1-0.9-2.9-0.9-4.1c0-1.2-0.7-4.5-1.6-7.3c-1.7-5.4-2.1-8.8-0.9-7.5c0.4,0.4,1.1,2.4,1.7,4.3
	c2.7,9.4,4.2,13.5,5.3,14.4c1.4,1.2,10.1,0.6,10.5-0.7c0.2-0.6,0.8-0.7,1.8-0.1c1.5,0.8,4,0.3,4-0.8c0-0.3,1.2-1.8,2.7-3.3
	c1.7-2.3,3.1-4.8,5.6-5.8c0.6-0.5,1.8-1.5,2.7-2.1c1.4-1,1.7-2,1.7-6.6c0-5.1-0.1-5.4-1.8-5.4c-1.9,0-5.3-2-4.5-2.6
	c0.2-0.2,1.8-0.2,3.4,0c3.5,0.4,4.1,1.6,4.7,7.9c0.2,2.2,0.6,4.5,0.9,4.9C211.4,202.4,210.7,203.1,202.2,210.7z"/>
<path class="st0" d="M204.4,585.9c-0.6-7-1.6-17.2-2.1-22.7c-0.5-5.5-0.9-16.9-0.8-25.5c0.2-22.3,1.7-94.5,2.6-126.4
	c0.4-14.9,0.8-36.6,0.8-48.2c0-11.6,0.3-29.1,0.7-39c0.3-9.9,0.3-18.6,0-19.5c-0.8-1.8-3.9,3.1-6.1,4.1c-1.7,1.6-4.3,3.8-5.8,5
	c-1.9,1.5-3.7,3.1-6,4.1c-1.3,0.7-2.6,1.4-2.8,1.6c-0.8,0.8-4.5,2.4-8.6,3.7c-6.6,2.1-6.5,2-6.5,15.3c0,6.4-0.3,25.7-0.8,42.8
	s-1.2,57.2-1.7,89.2s-1,62.5-1.1,67.7c-0.8,28.1-1.4,67.2-1,68.2c0.3,0.9,4.2,1.1,20.9,1.1h20.5l-0.5-4.4
	C205.8,600.7,205.1,592.9,204.4,585.9z"/>
<path class="st0" d="M161.7,212.4c-1.3-5.8-1.2-11.7-1.1-17.6l-6.2,1.9v24l9.2-2.8C162.8,216.2,162.1,214.4,161.7,212.4z"/>
<polygon class="st1" points="114.7,208.6 105,176.3 83,182.9 92.7,215.3 70.4,222 70.4,246 99.3,237.3 108.3,267.2 130.3,260.6 
	121.3,230.6 154.4,220.7 154.4,196.7 "/>
<polygon class="st3" points="60.9,224.8 67.5,246.9 70.4,246 70.4,222 "/>
<polygon class="st4" points="417.6,75.1 406.5,69.1 406.5,95.2 406.7,95.3 "/>
<polygon class="st4" points="413.4,59.8 435.4,53.1 419.4,0 406.5,3.9 406.5,48.2 408.7,44.2 "/>
<path class="st4" d="M447.4,172.8l9.9,32.8l-47-25.3c5.2-15.3,5.6-31.8,1.1-47.6l-0.7-2.2c-1.1-3.6-2.5-7-4.1-10.3v84.3l39.8,21.4
	l-32.8,9.9l6.6,22l70.4-21.2l-21.2-70.4L447.4,172.8z"/>
<path class="st5" d="M383.4,91.2l3.5-6.5l19.6,10.5V69.1l-8.7-4.7l8.7-16.2V3.9L366.2,16l6.6,22l15.5-4.7l-10.9,20.2l-21-11.3
	l-10.9,20.3l21,11.3l-3.2,6c-13.1-5.2-27.1-6.8-41-4.8v23.3c3.8-0.8,7.6-1.1,11.3-1.1c24.4,0,47.1,15.6,54.8,40.1l0.5,1.7
	c4.1,14.4,2.4,29.7-4.7,42.9c-7.1,13.3-18.9,23.1-33.3,27.6c-9.4,3-19.3,3.5-28.7,1.6v23.3c11.6,1.7,23.8,0.8,35.7-2.9
	c17.1-5.4,31.6-16.1,41.7-30.6l6.7,3.6v-84.3C401.1,108.7,393.3,98.9,383.4,91.2z"/>
<path class="st6" d="M307.4,205.7c-13.6-7.1-23.7-19-28.3-33.7c-4.6-14.6-3.3-30.2,3.8-43.8c7.1-13.6,19-23.7,33.7-28.3
	c2-0.6,4-1.1,6-1.5V75c-4.3,0.6-8.7,1.6-12.9,3c-20.5,6.5-37.2,20.6-47.1,39.7c-7.9,15.3-10.7,32.3-8.2,49l-15.8,4.7v24l22.4-6.7
	c11.7,25.1,35.2,41.9,61.6,45.7v-23.3C317.3,210,312.2,208.3,307.4,205.7z"/>
<path class="st0" d="M224.2,175.7c0,7.8,1.5,15.5,2.6,23.2l11.7-3.5v-24L224.2,175.7z"/>
</svg>
